<?xml version="1.0" encoding="UTF-8" standalone="no"?>
<svg
   xmlns:dc="http://purl.org/dc/elements/1.1/"
   xmlns:cc="http://creativecommons.org/ns#"
   xmlns:rdf="http://www.w3.org/1999/02/22-rdf-syntax-ns#"
   xmlns:svg="http://www.w3.org/2000/svg"
   xmlns="http://www.w3.org/2000/svg"
   xmlns:sodipodi="http://sodipodi.sourceforge.net/DTD/sodipodi-0.dtd"
   xmlns:inkscape="http://www.inkscape.org/namespaces/inkscape"
   viewBox="0 0 74.413918 67.790863"
   version="1.1"
   id="svg6"
   sodipodi:docname="atom_editor.svg"
   width="74.413918"
   height="67.790863"
   inkscape:version="0.92.4 (5da689c313, 2019-01-14)">
  <metadata
     id="metadata12">
    <rdf:RDF>
      <cc:Work
         rdf:about="">
        <dc:format>image/svg+xml</dc:format>
        <dc:type
           rdf:resource="http://purl.org/dc/dcmitype/StillImage" />
        <dc:title></dc:title>
      </cc:Work>
    </rdf:RDF>
  </metadata>
  <defs
     id="defs10" />
  <sodipodi:namedview
     pagecolor="#ffffff"
     bordercolor="#666666"
     borderopacity="1"
     objecttolerance="10"
     gridtolerance="10"
     guidetolerance="10"
     inkscape:pageopacity="0"
     inkscape:pageshadow="2"
     inkscape:window-width="1870"
     inkscape:window-height="1049"
     id="namedview8"
     showgrid="false"
     fit-margin-top="0"
     fit-margin-left="0"
     fit-margin-right="0"
     fit-margin-bottom="0"
     inkscape:zoom="4.2512117"
     inkscape:cx="48.043252"
     inkscape:cy="-7.1856301"
     inkscape:window-x="50"
     inkscape:window-y="0"
     inkscape:window-maximized="1"
     inkscape:current-layer="svg6" />
  <path
     d="m 49.959721,29.484176 c 8.3,17 10,33 3.7,36.2 -6.5,3.3 -19,-8.3 -28,-25.8 -9,-17.6 -11,-34.5000002 -4.4,-37.8000002 2.7,-1.4 6.6,0 11,3.4 M 8.9597213,40.384176 c -4.8,-2.5 -7.6,-5.5 -7.4,-8.7 0.3,-7.3 16.5999997,-12.3 36.2999997,-11.3 19.6,1 35.3,7.7 35,15 -0.3,3 -3.4,5.8 -8.4,7.8 m -34.3,17.1 c -5.3,3.8 -10,5.2 -13,3.3 -6,-4 -2.2,-20.6 8.5,-37 10.7,-16.4 24.3,-26.9000002 30.4,-23.1000002 3,2 3.6,6.5 2.4,12.5000002"
     id="path2"
     inkscape:connector-curvature="0"
     style="fill:none;stroke:#66595c;stroke-width:3.0999999;stroke-linecap:round" />
  <path
     d="m 41.759721,32.884176 c 0.5,2.4 -1,4.8 -3.4,5.3 -2.4,0.5 -4.7,-1 -5.2,-3.4 -0.5,-2.4 1,-4.8 3.4,-5.3 2.3,-0.5 4.7,1 5.2,3.4"
     id="path4"
     inkscape:connector-curvature="0"
     style="fill:#66595c"
     sodipodi:nodetypes="csscc" />
</svg>
