<?xml version="1.0" encoding="UTF-8" standalone="no"?>
<!-- Created with Inkscape (http://www.inkscape.org/) -->

<svg
   xmlns:dc="http://purl.org/dc/elements/1.1/"
   xmlns:cc="http://creativecommons.org/ns#"
   xmlns:rdf="http://www.w3.org/1999/02/22-rdf-syntax-ns#"
   xmlns:svg="http://www.w3.org/2000/svg"
   xmlns="http://www.w3.org/2000/svg"
   xmlns:sodipodi="http://sodipodi.sourceforge.net/DTD/sodipodi-0.dtd"
   xmlns:inkscape="http://www.inkscape.org/namespaces/inkscape"
   width="650"
   height="100"
   viewBox="0 0 171.97917 26.458334"
   version="1.1"
   id="svg8"
   inkscape:version="0.92.4 (5da689c313, 2019-01-14)"
   sodipodi:docname="logo.svg">
  <defs
     id="defs2" />
  <sodipodi:namedview
     id="base"
     pagecolor="#ffffff"
     bordercolor="#666666"
     borderopacity="1.0"
     inkscape:pageopacity="0.0"
     inkscape:pageshadow="2"
     inkscape:zoom="1.4"
     inkscape:cx="165.25622"
     inkscape:cy="-63.489617"
     inkscape:document-units="px"
     inkscape:current-layer="layer1"
     showgrid="false"
     inkscape:pagecheckerboard="true"
     units="px"
     inkscape:window-width="1870"
     inkscape:window-height="1049"
     inkscape:window-x="50"
     inkscape:window-y="0"
     inkscape:window-maximized="1" />
  <metadata
     id="metadata5">
    <rdf:RDF>
      <cc:Work
         rdf:about="">
        <dc:format>image/svg+xml</dc:format>
        <dc:type
           rdf:resource="http://purl.org/dc/dcmitype/StillImage" />
        <dc:title />
      </cc:Work>
    </rdf:RDF>
  </metadata>
  <g
     inkscape:label="Livello 1"
     inkscape:groupmode="layer"
     id="layer1"
     transform="translate(0,-270.54165)">
    <g
       aria-label="Federico Manzella"
       transform="matrix(0.26458333,0,0,0.26458333,2.8348215,266.38391)"
       style="font-style:normal;font-variant:normal;font-weight:normal;font-stretch:normal;font-size:40px;line-height:1.25;font-family:'Noto Sans Anatolian Hieroglyphs';-inkscape-font-specification:'Noto Sans Anatolian Hieroglyphs';letter-spacing:0px;word-spacing:0px;fill:#ffffff;fill-opacity:1;stroke:none"
       id="flowRoot815">
      <path
         d="M 55.822577,59.593421 53.50791,41.598755 H 14.681245 v 3.509333 h 7.018666 v 43.754665 h -7.018666 v 3.509333 c 2.613333,-0.224 9.631999,-0.224 12.618666,-0.224 3.434666,0 10.752,0 13.813333,0.224 V 88.862753 H 32.302577 V 68.702754 h 1.269334 c 6.645333,0 7.018666,3.061333 7.018666,8.735999 H 44.09991 V 56.457421 h -3.509333 c 0,5.674666 -0.373333,8.735999 -7.018666,8.735999 H 32.302577 V 45.108088 h 6.72 c 11.349333,0 12.245333,6.272 13.290666,14.485333 z"
         style="font-style:normal;font-variant:normal;font-weight:normal;font-stretch:normal;font-size:74.66666412px;font-family:'Latin Modern Roman Demi';-inkscape-font-specification:'Latin Modern Roman Demi';fill:#ffffff;fill-opacity:1"
         id="path819" />
      <path
         d="m 85.679909,83.636086 c 0,-1.343999 -1.418667,-1.343999 -1.792,-1.343999 -1.269333,0 -1.418666,0.373333 -1.792,1.418666 -1.792,4.554667 -6.122666,6.122667 -9.109333,6.122667 -8.362666,0 -8.362666,-9.333333 -8.362666,-13.738667 h 18.666666 c 1.866666,0 2.389333,-0.07467 2.389333,-2.165333 0,-6.645333 -2.688,-15.381333 -14.261333,-15.381333 -9.631999,0 -16.351999,6.570667 -16.351999,17.024 0,10.826666 7.466666,17.247999 17.247999,17.247999 10.005333,0 13.365333,-7.616 13.365333,-9.184 z M 78.586576,73.630753 H 64.62391 c 0.07467,-3.807999 0.298666,-12.394666 6.869333,-12.394666 7.093333,0 7.093333,10.677333 7.093333,12.394666 z"
         style="font-style:normal;font-variant:normal;font-weight:normal;font-stretch:normal;font-size:74.66666412px;font-family:'Latin Modern Roman Demi';-inkscape-font-specification:'Latin Modern Roman Demi';fill:#ffffff;fill-opacity:1"
         id="path821" />
      <path
         d="m 128.07541,92.372086 v -3.509333 c -4.62933,0 -5.152,0 -5.152,-2.912 V 40.553421 l -13.216,0.597334 v 3.509333 c 4.62933,0 5.152,0 5.152,2.912 v 14.037333 c -3.36,-2.613334 -6.42133,-2.837334 -8.21333,-2.837334 -8.885336,0 -16.352002,5.973333 -16.352002,17.024 0,11.349333 7.317333,17.023999 15.605332,17.023999 3.06133,0 5.97333,-0.970666 8.512,-3.061333 v 3.061333 z m -13.664,-7.018666 c -1.71733,2.688 -4.48,4.778666 -7.84,4.778666 -2.76267,0 -4.928,-1.866666 -5.89867,-4.704 -0.821329,-2.538666 -0.821329,-6.943999 -0.821329,-9.557333 0,-2.986666 0,-6.943999 0.895999,-9.557333 1.12,-2.986666 3.584,-4.853333 6.64533,-4.853333 2.31467,0 5.00267,1.12 7.01867,3.957333 z"
         style="font-style:normal;font-variant:normal;font-weight:normal;font-stretch:normal;font-size:74.66666412px;font-family:'Latin Modern Roman Demi';-inkscape-font-specification:'Latin Modern Roman Demi';fill:#ffffff;fill-opacity:1"
         id="path823" />
      <path
         d="m 162.09658,83.636086 c 0,-1.343999 -1.41867,-1.343999 -1.792,-1.343999 -1.26934,0 -1.41867,0.373333 -1.792,1.418666 -1.792,4.554667 -6.12267,6.122667 -9.10934,6.122667 -8.36266,0 -8.36266,-9.333333 -8.36266,-13.738667 h 18.66666 c 1.86667,0 2.38934,-0.07467 2.38934,-2.165333 0,-6.645333 -2.688,-15.381333 -14.26134,-15.381333 -9.632,0 -16.352,6.570667 -16.352,17.024 0,10.826666 7.46667,17.247999 17.248,17.247999 10.00534,0 13.36534,-7.616 13.36534,-9.184 z m -7.09334,-10.005333 h -13.96266 c 0.0747,-3.807999 0.29866,-12.394666 6.86933,-12.394666 7.09333,0 7.09333,10.677333 7.09333,12.394666 z"
         style="font-style:normal;font-variant:normal;font-weight:normal;font-stretch:normal;font-size:74.66666412px;font-family:'Latin Modern Roman Demi';-inkscape-font-specification:'Latin Modern Roman Demi';fill:#ffffff;fill-opacity:1"
         id="path825" />
      <path
         d="m 194.1134,64.894754 c 0,-4.181333 -4.40533,-6.122667 -7.98933,-6.122667 -3.43467,0 -6.57067,1.792 -8.21334,6.794667 h -0.0747 v -6.794667 l -12.39467,0.597334 v 3.509333 c 4.62933,0 5.152,0 5.152,2.912 v 23.071999 h -5.152 v 3.509333 l 9.408,-0.224 c 2.83733,0 7.616,0 10.304,0.224 v -3.509333 h -6.496 V 75.49742 c 0,-5.6 1.12,-14.037333 7.76533,-14.037333 0,0 -1.41866,1.269334 -1.41866,3.434667 0,3.061333 2.38933,4.554666 4.55466,4.554666 2.16534,0 4.55467,-1.568 4.55467,-4.554666 z"
         style="font-style:normal;font-variant:normal;font-weight:normal;font-stretch:normal;font-size:74.66666412px;font-family:'Latin Modern Roman Demi';-inkscape-font-specification:'Latin Modern Roman Demi';fill:#ffffff;fill-opacity:1"
         id="path827" />
      <path
         d="m 215.9709,92.372086 v -3.509333 h -4.62933 V 58.772087 l -12.992,0.597334 v 3.509333 c 4.40533,0 4.928,0 4.928,2.912 v 23.071999 h -5.152 v 3.509333 l 9.10933,-0.224 z m -3.584,-45.471998 c 0,-3.136 -2.61333,-5.824 -5.824,-5.824 -3.50933,0 -5.89867,2.837333 -5.89867,5.824 0,3.136 2.61334,5.824 5.824,5.824 3.50934,0 5.89867,-2.837334 5.89867,-5.824 z"
         style="font-style:normal;font-variant:normal;font-weight:normal;font-stretch:normal;font-size:74.66666412px;font-family:'Latin Modern Roman Demi';-inkscape-font-specification:'Latin Modern Roman Demi';fill:#ffffff;fill-opacity:1"
         id="path829" />
      <path
         d="m 247.87923,83.636086 c 0,-1.045333 -1.04533,-1.045333 -1.792,-1.045333 -1.12,0 -1.41867,0.07467 -1.71733,0.970667 -0.52267,1.493333 -2.16534,6.272 -7.69067,6.272 -2.688,0 -5.00267,-1.642667 -6.34667,-4.554667 -1.344,-2.912 -1.41866,-6.272 -1.41866,-9.856 0,-4.629333 0,-13.887999 6.944,-13.887999 1.344,0 2.16533,0.149333 3.36,0.373333 -0.672,0.597334 -1.49334,1.792 -1.49334,3.509333 0,3.285334 2.61334,4.704 4.62934,4.704 2.31466,0 4.704,-1.568 4.704,-4.704 0,-4.927999 -5.52534,-6.869333 -11.424,-6.869333 -9.856,0 -16.27734,6.794667 -16.27734,17.248 0,11.050666 7.24267,17.023999 16.05334,17.023999 10.15466,0 12.46933,-8.362666 12.46933,-9.184 z"
         style="font-style:normal;font-variant:normal;font-weight:normal;font-stretch:normal;font-size:74.66666412px;font-family:'Latin Modern Roman Demi';-inkscape-font-specification:'Latin Modern Roman Demi';fill:#ffffff;fill-opacity:1"
         id="path831" />
      <path
         d="m 285.16473,76.020087 c 0,-10.528 -6.57066,-17.472 -16.576,-17.472 -9.632,0 -16.50133,6.645333 -16.50133,17.472 0,10.751999 7.01867,16.799999 16.50133,16.799999 9.856,0 16.576,-6.346666 16.576,-16.799999 z M 275.6074,75.27342 c 0,3.509333 0,7.392 -0.74667,9.930666 -0.74666,2.912 -3.50933,4.629334 -6.19733,4.629334 -2.76267,0 -5.6,-1.642667 -6.42133,-4.928 -0.59734,-2.464 -0.59734,-7.018667 -0.59734,-9.632 0,-3.509333 0,-7.093333 0.672,-9.482666 0.74667,-2.837333 3.50934,-4.554667 6.272,-4.554667 3.21067,0 5.67467,2.165333 6.34667,4.554667 0.672,2.464 0.672,6.048 0.672,9.482666 z"
         style="font-style:normal;font-variant:normal;font-weight:normal;font-stretch:normal;font-size:74.66666412px;font-family:'Latin Modern Roman Demi';-inkscape-font-specification:'Latin Modern Roman Demi';fill:#ffffff;fill-opacity:1"
         id="path833" />
      <path
         d="m 380.58758,92.372086 v -3.509333 h -7.01867 V 44.660088 h 7.01867 v -3.509333 h -15.53067 c -1.568,0 -2.38933,0 -3.06133,1.866666 L 347.73424,80.574753 333.47291,43.092088 c -0.672,-1.717333 -1.04533,-1.941333 -3.06133,-1.941333 h -15.60534 v 3.509333 h 7.01867 V 86.69742 c 0,1.642666 0,1.717333 -1.792,1.941333 -1.64267,0.224 -3.21067,0.224 -3.73333,0.224 h -1.49334 v 3.509333 l 8.96,-0.224 9.03467,0.224 v -3.509333 h -1.49333 c -1.568,0 -3.136,-0.149333 -3.65867,-0.224 -1.86667,-0.224 -1.86667,-0.298667 -1.86667,-1.941333 V 46.601421 h 0.0747 l 16.72533,43.903999 c 0.37334,0.970666 0.672,1.866666 2.24,1.866666 1.49334,0 1.792,-0.970666 2.16534,-1.866666 l 17.17333,-45.098666 h 0.0747 v 43.455999 h -7.01867 v 3.509333 c 2.61333,-0.224 8.736,-0.224 11.648,-0.224 2.912,0 9.10933,0 11.72267,0.224 z"
         style="font-style:normal;font-variant:normal;font-weight:normal;font-stretch:normal;font-size:74.66666412px;font-family:'Latin Modern Roman Demi';-inkscape-font-specification:'Latin Modern Roman Demi';fill:#ffffff;fill-opacity:1"
         id="path835" />
      <path
         d="m 418.98258,90.580086 c 0,-1.493333 -0.74667,-1.642666 -1.568,-1.717333 -3.50934,-0.224 -3.50934,-1.194667 -3.50934,-2.762667 V 69.972087 c 0,-7.093333 -5.52533,-11.424 -14.70933,-11.424 -2.464,0 -12.24533,0.149334 -12.24533,6.869333 0,3.285334 2.61333,4.704 4.62933,4.704 2.31467,0 4.704,-1.568 4.704,-4.704 0,-2.389333 -1.71733,-3.733333 -1.71733,-3.733333 1.568,-0.298666 2.16533,-0.448 4.40533,-0.448 4.48,0 6.42133,3.584 6.42133,8.661333 v 2.688 c -10.752,0.224 -20.53333,3.808 -20.53333,11.648 0,6.197333 7.01867,8.586666 12.61867,8.586666 4.55466,0 7.616,-2.613333 9.184,-5.973333 0,1.568 0,5.525333 6.79466,5.525333 h 3.136 c 1.49334,0 2.38934,0 2.38934,-1.792 z m -13.58934,-8.511999 c 0,6.421333 -4.85333,8.063999 -7.01866,8.063999 -3.06134,0 -4.77867,-3.061333 -4.77867,-5.898666 0,-8.213333 9.856,-9.109333 11.79733,-9.258667 z"
         style="font-style:normal;font-variant:normal;font-weight:normal;font-stretch:normal;font-size:74.66666412px;font-family:'Latin Modern Roman Demi';-inkscape-font-specification:'Latin Modern Roman Demi';fill:#ffffff;fill-opacity:1"
         id="path837" />
      <path
         d="m 460.74574,92.372086 v -3.509333 h -5.152 V 69.300087 c 0,-5.6 -1.792,-10.528 -10.08,-10.528 -5.376,0 -9.184,3.061334 -11.34933,7.541333 h -0.0747 v -7.541333 l -12.84266,0.597334 v 3.509333 c 4.62933,0 5.152,0 5.152,2.912 v 23.071999 h -5.152 v 3.509333 l 9.408,-0.224 9.408,0.224 v -3.509333 h -5.152 V 73.25742 c 0,-8.288 5.74933,-11.797333 9.48266,-11.797333 1.19467,0 2.688,0.373334 2.688,6.944 v 20.458666 h -4.85333 v 3.509333 l 9.184,-0.224 z"
         style="font-style:normal;font-variant:normal;font-weight:normal;font-stretch:normal;font-size:74.66666412px;font-family:'Latin Modern Roman Demi';-inkscape-font-specification:'Latin Modern Roman Demi';fill:#ffffff;fill-opacity:1"
         id="path839" />
      <path
         d="m 490.95891,77.28942 h -3.50933 c -0.59734,7.168 -1.26934,12.096 -10.45334,12.096 h -4.10666 l 17.32266,-27.029333 c 0.59734,-0.896 0.59734,-1.12 0.59734,-1.568 0,-1.568 -1.04534,-1.568 -2.38934,-1.568 h -23.37066 l -0.896,13.066667 h 3.50933 c 0.448,-6.794667 1.41867,-10.378667 9.48267,-10.378667 h 3.95733 l -17.39733,27.178666 c -0.59734,0.821333 -0.59734,0.970667 -0.59734,1.642667 0,1.642666 0.97067,1.642666 2.38934,1.642666 h 24.11733 z"
         style="font-style:normal;font-variant:normal;font-weight:normal;font-stretch:normal;font-size:74.66666412px;font-family:'Latin Modern Roman Demi';-inkscape-font-specification:'Latin Modern Roman Demi';fill:#ffffff;fill-opacity:1"
         id="path841" />
      <path
         d="m 526.82573,83.636086 c 0,-1.343999 -1.41866,-1.343999 -1.792,-1.343999 -1.26933,0 -1.41866,0.373333 -1.792,1.418666 -1.792,4.554667 -6.12266,6.122667 -9.10933,6.122667 -8.36267,0 -8.36267,-9.333333 -8.36267,-13.738667 h 18.66667 c 1.86667,0 2.38933,-0.07467 2.38933,-2.165333 0,-6.645333 -2.688,-15.381333 -14.26133,-15.381333 -9.632,0 -16.352,6.570667 -16.352,17.024 0,10.826666 7.46667,17.247999 17.248,17.247999 10.00533,0 13.36533,-7.616 13.36533,-9.184 z M 519.7324,73.630753 h -13.96267 c 0.0747,-3.807999 0.29867,-12.394666 6.86934,-12.394666 7.09333,0 7.09333,10.677333 7.09333,12.394666 z"
         style="font-style:normal;font-variant:normal;font-weight:normal;font-stretch:normal;font-size:74.66666412px;font-family:'Latin Modern Roman Demi';-inkscape-font-specification:'Latin Modern Roman Demi';fill:#ffffff;fill-opacity:1"
         id="path843" />
      <path
         d="m 549.28522,92.372086 v -3.509333 h -5.152 V 40.553421 l -13.216,0.597334 v 3.509333 c 4.62934,0 5.152,0 5.152,2.912 v 41.290665 h -5.152 v 3.509333 l 9.184,-0.224 z"
         style="font-style:normal;font-variant:normal;font-weight:normal;font-stretch:normal;font-size:74.66666412px;font-family:'Latin Modern Roman Demi';-inkscape-font-specification:'Latin Modern Roman Demi';fill:#ffffff;fill-opacity:1"
         id="path845" />
      <path
         d="m 569.99354,92.372086 v -3.509333 h -5.152 V 40.553421 l -13.216,0.597334 v 3.509333 c 4.62933,0 5.152,0 5.152,2.912 v 41.290665 h -5.152 v 3.509333 l 9.184,-0.224 z"
         style="font-style:normal;font-variant:normal;font-weight:normal;font-stretch:normal;font-size:74.66666412px;font-family:'Latin Modern Roman Demi';-inkscape-font-specification:'Latin Modern Roman Demi';fill:#ffffff;fill-opacity:1"
         id="path847" />
      <path
         d="m 606.23258,90.580086 c 0,-1.493333 -0.74667,-1.642666 -1.568,-1.717333 -3.50934,-0.224 -3.50934,-1.194667 -3.50934,-2.762667 V 69.972087 c 0,-7.093333 -5.52533,-11.424 -14.70933,-11.424 -2.464,0 -12.24533,0.149334 -12.24533,6.869333 0,3.285334 2.61333,4.704 4.62933,4.704 2.31467,0 4.704,-1.568 4.704,-4.704 0,-2.389333 -1.71733,-3.733333 -1.71733,-3.733333 1.568,-0.298666 2.16533,-0.448 4.40533,-0.448 4.48,0 6.42133,3.584 6.42133,8.661333 v 2.688 c -10.752,0.224 -20.53333,3.808 -20.53333,11.648 0,6.197333 7.01867,8.586666 12.61867,8.586666 4.55466,0 7.616,-2.613333 9.184,-5.973333 0,1.568 0,5.525333 6.79466,5.525333 h 3.136 c 1.49334,0 2.38934,0 2.38934,-1.792 z m -13.58934,-8.511999 c 0,6.421333 -4.85333,8.063999 -7.01866,8.063999 -3.06134,0 -4.77867,-3.061333 -4.77867,-5.898666 0,-8.213333 9.856,-9.109333 11.79733,-9.258667 z"
         style="font-style:normal;font-variant:normal;font-weight:normal;font-stretch:normal;font-size:74.66666412px;font-family:'Latin Modern Roman Demi';-inkscape-font-specification:'Latin Modern Roman Demi';fill:#ffffff;fill-opacity:1"
         id="path849" />
    </g>
  </g>
</svg>
