<?xml version="1.0" encoding="UTF-8" standalone="no"?>
<!-- Created with Inkscape (http://www.inkscape.org/) -->

<svg
   xmlns:dc="http://purl.org/dc/elements/1.1/"
   xmlns:cc="http://creativecommons.org/ns#"
   xmlns:rdf="http://www.w3.org/1999/02/22-rdf-syntax-ns#"
   xmlns:svg="http://www.w3.org/2000/svg"
   xmlns="http://www.w3.org/2000/svg"
   xmlns:sodipodi="http://sodipodi.sourceforge.net/DTD/sodipodi-0.dtd"
   xmlns:inkscape="http://www.inkscape.org/namespaces/inkscape"
   width="512"
   height="512"
   viewBox="0 0 135.46666 135.46666"
   version="1.1"
   id="svg8"
   inkscape:version="0.92.4 (5da689c313, 2019-01-14)"
   sodipodi:docname="me.svg">
  <defs
     id="defs2">
    <inkscape:path-effect
       effect="mirror_symmetry"
       start_point="69.408936,212.95223"
       end_point="69.408936,227.43815"
       center_point="69.408936,220.19519"
       id="path-effect855"
       is_visible="true"
       mode="free"
       discard_orig_path="false"
       fuse_paths="false"
       oposite_fuse="false" />
    <inkscape:path-effect
       effect="mirror_symmetry"
       start_point="69.408936,211.59623"
       end_point="69.408936,228.79415"
       center_point="69.408936,220.19519"
       id="path-effect944"
       is_visible="true"
       mode="free"
       discard_orig_path="false"
       fuse_paths="false"
       oposite_fuse="false" />
    <inkscape:path-effect
       effect="mirror_symmetry"
       start_point="69.408936,210.27331"
       end_point="69.408936,230.11706"
       center_point="69.408936,220.19519"
       id="path-effect940"
       is_visible="true"
       mode="free"
       discard_orig_path="false"
       fuse_paths="false"
       oposite_fuse="false" />
    <inkscape:path-effect
       effect="mirror_symmetry"
       start_point="69.412232,277.03679"
       end_point="69.412232,290.50717"
       center_point="69.412232,283.77198"
       id="path-effect928"
       is_visible="true"
       mode="free"
       discard_orig_path="false"
       fuse_paths="false"
       oposite_fuse="false" />
    <inkscape:path-effect
       effect="mirror_symmetry"
       start_point="69.408936,276.72464"
       end_point="69.408936,290.81706"
       center_point="69.408936,283.77085"
       id="path-effect921"
       is_visible="true"
       mode="free"
       discard_orig_path="false"
       fuse_paths="false"
       oposite_fuse="false" />
    <inkscape:path-effect
       effect="mirror_symmetry"
       start_point="69.408936,266.30294"
       end_point="69.408936,295.9471"
       center_point="69.408936,281.12502"
       id="path-effect914"
       is_visible="true"
       mode="free"
       discard_orig_path="false"
       fuse_paths="false"
       oposite_fuse="false" />
    <inkscape:path-effect
       effect="mirror_symmetry"
       start_point="69.408936,251.0285"
       end_point="69.408936,281.12502"
       center_point="69.408936,266.07676"
       id="path-effect912"
       is_visible="true"
       mode="free"
       discard_orig_path="false"
       fuse_paths="false"
       oposite_fuse="false" />
    <inkscape:path-effect
       effect="mirror_symmetry"
       start_point="69.408936,249.44255"
       end_point="69.408936,260.42419"
       center_point="69.408936,254.93337"
       id="path-effect907"
       is_visible="true"
       mode="free"
       discard_orig_path="false"
       fuse_paths="false"
       oposite_fuse="false" />
    <inkscape:path-effect
       effect="mirror_symmetry"
       start_point="69.408936,251.0285"
       end_point="69.408936,263.13587"
       center_point="69.408936,257.08218"
       id="path-effect901"
       is_visible="true"
       mode="free"
       discard_orig_path="false"
       fuse_paths="false"
       oposite_fuse="false" />
    <inkscape:path-effect
       effect="mirror_symmetry"
       start_point="69.406798,213.97598"
       end_point="69.406798,219.07736"
       center_point="69.406798,216.52667"
       id="path-effect883"
       is_visible="true"
       mode="free"
       discard_orig_path="false"
       fuse_paths="false"
       oposite_fuse="false" />
    <inkscape:path-effect
       effect="mirror_symmetry"
       start_point="69.408935,174.19891"
       end_point="69.408935,212.85308"
       center_point="69.408935,193.526"
       id="path-effect876"
       is_visible="true"
       mode="free"
       discard_orig_path="false"
       fuse_paths="false"
       oposite_fuse="false" />
    <inkscape:path-effect
       effect="mirror_symmetry"
       start_point="69.408936,256.63632"
       end_point="69.408936,297.00002"
       center_point="69.408936,276.81817"
       id="path-effect871"
       is_visible="true"
       mode="free"
       discard_orig_path="false"
       fuse_paths="false"
       oposite_fuse="false" />
    <inkscape:path-effect
       effect="mirror_symmetry"
       start_point="69.409409,215.26669"
       end_point="69.409409,223.32821"
       center_point="69.409409,219.29745"
       id="path-effect1200"
       is_visible="true"
       mode="free"
       discard_orig_path="false"
       fuse_paths="false"
       oposite_fuse="false" />
    <inkscape:path-effect
       effect="mirror_symmetry"
       start_point="69.414141,213.13436"
       end_point="69.414141,232.15314"
       center_point="69.414141,222.64375"
       id="path-effect1163"
       is_visible="true"
       mode="free"
       discard_orig_path="false"
       fuse_paths="false"
       oposite_fuse="false" />
    <inkscape:path-effect
       effect="mirror_symmetry"
       start_point="69.394171,243.16401"
       end_point="69.394171,247.28389"
       center_point="69.394171,245.22395"
       id="path-effect1158"
       is_visible="true"
       mode="free"
       discard_orig_path="false"
       fuse_paths="false"
       oposite_fuse="false" />
    <inkscape:path-effect
       effect="mirror_symmetry"
       start_point="69.408936,236.85014"
       end_point="69.408936,247.29193"
       center_point="69.408936,242.07103"
       id="path-effect1151"
       is_visible="true"
       mode="free"
       discard_orig_path="false"
       fuse_paths="false"
       oposite_fuse="false" />
    <inkscape:path-effect
       effect="mirror_symmetry"
       start_point="69.408936,212.99482"
       end_point="69.408936,256.88619"
       center_point="69.408936,234.94051"
       id="path-effect1143"
       is_visible="true"
       mode="free"
       discard_orig_path="false"
       fuse_paths="false"
       oposite_fuse="false" />
    <inkscape:path-effect
       effect="mirror_symmetry"
       start_point="69.358627,177.18158"
       end_point="69.358627,256.03788"
       center_point="69.358627,216.60973"
       id="path-effect1124"
       is_visible="true"
       mode="free"
       discard_orig_path="false"
       fuse_paths="false"
       oposite_fuse="false" />
  </defs>
  <sodipodi:namedview
     id="base"
     pagecolor="#ffffff"
     bordercolor="#666666"
     borderopacity="1.0"
     inkscape:pageopacity="0.0"
     inkscape:pageshadow="2"
     inkscape:zoom="1"
     inkscape:cx="29.5263"
     inkscape:cy="340.90731"
     inkscape:document-units="px"
     inkscape:current-layer="layer1"
     showgrid="true"
     inkscape:pagecheckerboard="true"
     units="px"
     inkscape:window-width="1870"
     inkscape:window-height="1049"
     inkscape:window-x="50"
     inkscape:window-y="0"
     inkscape:window-maximized="1" />
  <metadata
     id="metadata5">
    <rdf:RDF>
      <cc:Work
         rdf:about="">
        <dc:format>image/svg+xml</dc:format>
        <dc:type
           rdf:resource="http://purl.org/dc/dcmitype/StillImage" />
        <dc:title />
      </cc:Work>
    </rdf:RDF>
  </metadata>
  <g
     inkscape:label="Head"
     inkscape:groupmode="layer"
     id="layer1"
     transform="translate(0,-161.53336)">
    <path
       style="fill:#409f45;fill-opacity:1;fill-rule:nonzero;stroke:none;stroke-width:3.00427413;stroke-linecap:butt;stroke-linejoin:miter;stroke-miterlimit:4;stroke-dasharray:none;stroke-opacity:1;paint-order:stroke fill markers"
       d="M 69.408936,297.00002 H 18.530228 c 3.732513,-16.2833 5.816132,-25.05307 11.178975,-33.7001 12.043573,-5.27359 28.821579,-6.85258 39.699733,-6.66359 z m 0,0 h 50.878704 c -3.73251,-16.2833 -5.81613,-25.05307 -11.17897,-33.7001 -12.043574,-5.27359 -28.82158,-6.85258 -39.699734,-6.66359 z"
       id="path1202"
       inkscape:connector-curvature="0"
       sodipodi:nodetypes="ccccc"
       inkscape:path-effect="#path-effect871"
       inkscape:original-d="M 69.408936,297.00002 H 18.530228 c 3.732513,-16.2833 5.816132,-25.05307 11.178975,-33.7001 12.043573,-5.27359 28.821579,-6.85258 39.699733,-6.66359 z" />
    <path
       style="fill:#4c804f;fill-opacity:1;fill-rule:nonzero;stroke:none;stroke-width:2.64583325;stroke-linecap:butt;stroke-linejoin:miter;stroke-miterlimit:4;stroke-dasharray:none;stroke-opacity:1;paint-order:stroke fill markers"
       d="m 54.349255,252.37938 15.059681,-2.93683 v 8.04481 l -15.059681,2.93683 z m 30.119362,0 -15.059681,-2.93683 v 8.04481 l 15.059681,2.93683 z"
       id="rect904"
       inkscape:connector-curvature="0"
       sodipodi:nodetypes="ccccc"
       inkscape:path-effect="#path-effect907"
       inkscape:original-d="m 54.349255,252.37938 15.059681,-2.93683 v 8.04481 l -15.059681,2.93683 z" />
    <path
       style="fill:#ffd2a7;fill-opacity:0.94014085;fill-rule:nonzero;stroke:none;stroke-width:2.53780055;stroke-linecap:butt;stroke-linejoin:miter;stroke-miterlimit:4;stroke-dasharray:none;stroke-opacity:1;paint-order:stroke fill markers"
       d="m 57.212582,251.0285 h 12.196354 v 32.74235 l -4.668046,-7.93749 v -7.90224 l -7.528311,2.61057 z m 24.392708,0 H 69.408936 v 32.74235 l 4.668046,-7.93749 v -7.90224 l 7.528311,2.61057 z"
       id="rect1136"
       inkscape:connector-curvature="0"
       sodipodi:nodetypes="ccccccc"
       inkscape:path-effect="#path-effect912"
       inkscape:original-d="m 57.212582,251.0285 h 12.196354 v 32.74235 l -4.668046,-7.93749 v -7.90224 l -7.528311,2.61057 z" />
    <path
       transform="translate(0,-1.0921898e-6)"
       style="fill:#ffd2a7;fill-opacity:1;fill-rule:nonzero;stroke:none;stroke-width:3.08041549;stroke-linecap:butt;stroke-linejoin:miter;stroke-miterlimit:4;stroke-dasharray:none;stroke-opacity:1;paint-order:stroke fill markers"
       d="m 69.358627,255.98961 c -2.720389,-0.0372 -3.823448,-0.20177 -5.644901,-0.66146 -7.58559,-3.23548 -18.263737,-11.64438 -23.021434,-20.86521 -1.397745,-3.72219 0.01843,-7.51772 -0.248845,-17.97184 0,-38.90796 12.945766,-31.84824 28.915178,-31.84824 z m 0,0 c 2.720389,-0.0372 3.823448,-0.20177 5.644901,-0.66146 7.58559,-3.23548 18.263737,-11.64438 23.021434,-20.86521 1.397745,-3.72219 -0.01843,-7.51772 0.248845,-17.97184 0,-38.90796 -12.945766,-31.84824 -28.915178,-31.84824 z"
       id="path1107"
       inkscape:connector-curvature="0"
       sodipodi:nodetypes="cccccc"
       inkscape:path-effect="#path-effect1124"
       inkscape:original-d="m 69.358627,255.98961 c -2.720389,-0.0372 -3.823448,-0.20177 -5.644901,-0.66146 -7.58559,-3.23548 -18.263737,-11.64438 -23.021434,-20.86521 -1.397745,-3.72219 0.01843,-7.51772 -0.248845,-17.97184 0,-38.90796 12.945766,-31.84824 28.915178,-31.84824 z" />
    <path
       style="fill:#f8c89c;fill-opacity:1;fill-rule:nonzero;stroke:none;stroke-width:3.73474765;stroke-linecap:butt;stroke-linejoin:miter;stroke-miterlimit:4;stroke-dasharray:none;stroke-opacity:1;paint-order:stroke fill markers"
       d="m 40.340385,232.0136 c -2.647399,0 -4.929108,-0.4422 -5.19682,-4.60148 -0.09515,-1.47824 0.500738,-2.6149 0.543781,-4.15495 0.04304,-1.54005 -0.337456,-4.04826 -0.273306,-5.99773 0.122937,-3.73598 3.752958,-4.26462 5.076659,-4.26462 l -0.150312,19.01878 z m 58.147512,0 c 2.647403,0 4.929113,-0.4422 5.196823,-4.60148 0.0952,-1.47824 -0.50074,-2.6149 -0.54378,-4.15495 -0.043,-1.54005 0.33745,-4.04826 0.2733,-5.99773 -0.12294,-3.73598 -3.752956,-4.26462 -5.076657,-4.26462 l 0.150312,19.01878 z"
       id="path1160"
       inkscape:connector-curvature="0"
       sodipodi:nodetypes="ssssccs"
       inkscape:path-effect="#path-effect1163"
       inkscape:original-d="m 40.340385,232.0136 c -2.647399,0 -4.929108,-0.4422 -5.19682,-4.60148 -0.09515,-1.47824 0.500738,-2.6149 0.543781,-4.15495 0.04304,-1.54005 -0.337456,-4.04826 -0.273306,-5.99773 0.122937,-3.73598 3.752958,-4.26462 5.076659,-4.26462 l -0.150312,19.01878 z" />
    <path
       style="fill:#f5aa67;fill-opacity:0.42105263;fill-rule:nonzero;stroke:none;stroke-width:1.2047261;stroke-linecap:butt;stroke-linejoin:miter;stroke-miterlimit:4;stroke-dasharray:none;stroke-opacity:1;paint-order:stroke fill markers"
       d="m 57.212582,251.0285 h 12.196354 v 12.10485 c -5.289031,0.12966 -12.196354,-4.79273 -12.196354,-4.79273 z m 24.392708,0 H 69.408936 v 12.10485 c 5.289031,0.12966 12.196354,-4.79273 12.196354,-4.79273 z"
       id="rect1136-3"
       inkscape:connector-curvature="0"
       sodipodi:nodetypes="ccccc"
       inkscape:path-effect="#path-effect901"
       inkscape:original-d="m 57.212582,251.0285 h 12.196354 c 0,0 0,4.79273 0,12.10485 -5.289031,0.12966 -12.196354,-4.79273 -12.196354,-4.79273 z"
       transform="matrix(1,0,0,0.72137317,0,69.943274)" />
    <path
       style="fill:#f2b239;fill-opacity:1;fill-rule:nonzero;stroke:none;stroke-width:2.64583325;stroke-linecap:butt;stroke-linejoin:miter;stroke-miterlimit:4;stroke-dasharray:none;stroke-opacity:1;paint-order:stroke fill markers"
       d="m 42.427827,228.53909 c -10e-7,0.81217 8.447035,14.84412 11.956232,9.73017 1.749593,-2.54968 3.235359,-6.17446 15.024877,-5.63985 v 3.54012 c -10.17515,0.14719 -11.682922,0.34451 -12.474819,6.47388 -0.60788,4.70506 4.433114,8.40357 6.155921,8.04531 3.223764,-0.6704 4.456656,-2.2952 6.318898,-2.3271 v 8.52457 c -9.889549,0 -26.663115,-16.20049 -28.710172,-22.36694 -1.984376,-5.97765 -0.703366,-1.67452 -0.208065,-21.52443 1.952055,3.40178 1.937134,9.04691 1.937128,15.54427 z m 53.962218,0 c 10e-7,0.81217 -8.447035,14.84412 -11.956232,9.73017 -1.749593,-2.54968 -3.235359,-6.17446 -15.024877,-5.63985 v 3.54012 c 10.17515,0.14719 11.682922,0.34451 12.474819,6.47388 0.60788,4.70506 -4.433114,8.40357 -6.155921,8.04531 -3.223764,-0.6704 -4.456656,-2.2952 -6.318898,-2.3271 v 8.52457 c 9.889549,0 26.663115,-16.20049 28.710172,-22.36694 1.984372,-5.97765 0.703366,-1.67452 0.208065,-21.52443 -1.952055,3.40178 -1.937134,9.04691 -1.937128,15.54427 z"
       id="path1138"
       inkscape:connector-curvature="0"
       sodipodi:nodetypes="ssccssccscs"
       inkscape:path-effect="#path-effect1143"
       inkscape:original-d="m 42.427827,228.53909 c -10e-7,0.81217 8.447035,14.84412 11.956232,9.73017 1.749593,-2.54968 3.235359,-6.17446 15.024877,-5.63985 v 3.54012 c -10.17515,0.14719 -11.682922,0.34451 -12.474819,6.47388 -0.60788,4.70506 4.433114,8.40357 6.155921,8.04531 3.223764,-0.6704 4.456656,-2.2952 6.318898,-2.3271 l 0,8.52457 c -9.889549,0 -26.663115,-16.20049 -28.710172,-22.36694 -1.984376,-5.97765 -0.703366,-1.67452 -0.208065,-21.52443 1.952055,3.40178 1.937134,9.04691 1.937128,15.54427 z" />
    <path
       style="fill:#e4b485;fill-opacity:1;fill-rule:nonzero;stroke:none;stroke-width:2.64583325;stroke-linecap:butt;stroke-linejoin:miter;stroke-miterlimit:4;stroke-dasharray:none;stroke-opacity:1;paint-order:stroke fill markers"
       d="m 69.408936,220.19519 5.357628,8.36232 c -0.618347,2.10207 -3.042985,3.82786 -5.357628,3.80859 z"
       id="rect1145"
       inkscape:connector-curvature="0"
       sodipodi:nodetypes="cccc" />
    <path
       style="fill:#282828;fill-opacity:0.77816904;fill-rule:nonzero;stroke:none;stroke-width:2.64583325;stroke-linecap:butt;stroke-linejoin:miter;stroke-miterlimit:4;stroke-dasharray:none;stroke-opacity:1;paint-order:stroke fill markers"
       d="m 69.408936,247.29193 c -4.789842,-0.0889 -9.856814,-4.16049 -8.872391,-7.16789 1.067912,-3.26245 6.658176,-1.5001 8.872391,-1.5001 z m 0,0 c 4.789842,-0.0889 9.856814,-4.16049 8.872391,-7.16789 -1.067912,-3.26245 -6.658176,-1.5001 -8.872391,-1.5001 z"
       id="path1148"
       inkscape:connector-curvature="0"
       sodipodi:nodetypes="cscc"
       inkscape:path-effect="#path-effect1151"
       inkscape:original-d="m 69.408936,247.29193 c -4.789842,-0.0889 -9.856814,-4.16049 -8.872391,-7.16789 1.067912,-3.26245 6.658176,-1.5001 8.872391,-1.5001 z" />
    <path
       style="fill:#f8495e;fill-opacity:1;fill-rule:nonzero;stroke:none;stroke-width:2.64583325;stroke-linecap:butt;stroke-linejoin:miter;stroke-miterlimit:4;stroke-dasharray:none;stroke-opacity:1;paint-order:stroke fill markers"
       d="m 69.394171,247.27717 c 0,0 -2.85287,0.23784 -6.107378,-2.11717 0.01942,-2.14145 6.107378,-1.99382 6.107378,-1.99382 z m 0,0 c 0,0 2.85287,0.23784 6.107378,-2.11717 -0.01942,-2.14145 -6.107378,-1.99382 -6.107378,-1.99382 z"
       id="path1155"
       inkscape:connector-curvature="0"
       sodipodi:nodetypes="cccc"
       inkscape:path-effect="#path-effect1158"
       inkscape:original-d="m 69.394171,247.27717 c 0,0 -2.85287,0.23784 -6.107378,-2.11717 0.01942,-2.14145 6.107378,-1.99382 6.107378,-1.99382 z" />
    <g
       id="g1171"
       inkscape:path-effect="#path-effect1200"
       transform="translate(0,-2.1646763)">
      <path
         style="fill:#ffffff;fill-opacity:1;fill-rule:nonzero;stroke:none;stroke-width:1.73632801;stroke-linecap:butt;stroke-linejoin:miter;stroke-miterlimit:4;stroke-dasharray:none;stroke-opacity:1;paint-order:stroke fill markers"
         d="m 60.111679,219.72769 c -1e-6,2.22613 -1.77687,4.03076 -3.96875,4.03076 -2.19188,0 -3.968749,-1.80463 -3.96875,-4.03076 10e-7,-2.22613 1.77687,-4.03076 3.96875,-4.03076 2.19188,0 3.968749,1.80463 3.96875,4.03076 z m 18.59546,0 c 10e-7,2.22613 1.77687,4.03076 3.96875,4.03076 2.19188,0 3.968749,-1.80463 3.96875,-4.03076 -10e-7,-2.22613 -1.77687,-4.03076 -3.96875,-4.03076 -2.19188,0 -3.968749,1.80463 -3.96875,4.03076 z"
         id="path1165"
         inkscape:original-d="m 60.111679,219.72769 a 3.9687498,4.0307612 0 0 1 -3.96875,4.03076 3.9687498,4.0307612 0 0 1 -3.96875,-4.03076 3.9687498,4.0307612 0 0 1 3.96875,-4.03076 3.9687498,4.0307612 0 0 1 3.96875,4.03076 z"
         inkscape:connector-curvature="0" />
      <path
         style="fill:#31b6eb;fill-opacity:1;fill-rule:nonzero;stroke:none;stroke-width:2.51519608;stroke-linecap:butt;stroke-linejoin:miter;stroke-miterlimit:4;stroke-dasharray:none;stroke-opacity:1;paint-order:stroke fill markers"
         d="m 58.910599,220.37161 c 3e-6,1.09594 -0.888433,1.98438 -1.984375,1.98438 -1.095942,0 -1.984378,-0.88844 -1.984375,-1.98438 3e-6,-1.09594 0.888437,-1.98437 1.984375,-1.98437 1.095938,0 1.984372,0.88843 1.984375,1.98437 z m 20.99762,0 c -3e-6,1.09594 0.888433,1.98438 1.984375,1.98438 1.095942,0 1.984378,-0.88844 1.984375,-1.98438 -3e-6,-1.09594 -0.888437,-1.98437 -1.984375,-1.98437 -1.095938,0 -1.984372,0.88843 -1.984375,1.98437 z"
         id="path1167"
         inkscape:original-d="m 58.910599,220.37161 a 1.9843749,1.9843749 0 0 1 -1.984375,1.98438 1.9843749,1.9843749 0 0 1 -1.984375,-1.98438 1.9843749,1.9843749 0 0 1 1.984375,-1.98437 1.9843749,1.9843749 0 0 1 1.984375,1.98437 z"
         inkscape:connector-curvature="0" />
    </g>
    <path
       style="fill:#f2b239;fill-opacity:1;fill-rule:nonzero;stroke:none;stroke-width:2.64583325;stroke-linecap:butt;stroke-linejoin:miter;stroke-miterlimit:4;stroke-dasharray:none;stroke-opacity:1;paint-order:stroke fill markers"
       d="m 42.191589,208.6481 c -0.425222,3.85569 -1.74814,4.20498 -1.74814,4.20498 -0.641147,-0.24804 -1.038496,-1.53078 -1.228844,-3.40661 -0.190347,-1.87583 -0.173692,-4.34475 0.01317,-6.96516 0.625388,-5.08273 1.009827,-6.14295 2.869318,-11.02918 2.483528,-4.9367 5.092222,-9.01381 12.316538,-11.51305 4.75633,-1.64544 13.75558,-1.6335 14.995304,-1.25987 v 9.6874 c -2.889071,0.15103 -12.313544,-1.09919 -16.39778,0.53223 -2.873471,1.14778 -4.976624,4.89269 -6.283853,10.53609 -0.645709,2.78758 -4.535713,9.21317 -4.535713,9.21317 z m 54.434692,0 c 0.425222,3.85569 1.74814,4.20498 1.74814,4.20498 0.641147,-0.24804 1.038496,-1.53078 1.228844,-3.40661 0.190347,-1.87583 0.173692,-4.34475 -0.01317,-6.96516 -0.625388,-5.08273 -1.009827,-6.14295 -2.869318,-11.02918 -2.483528,-4.9367 -5.092222,-9.01381 -12.316538,-11.51305 -4.75633,-1.64544 -13.75558,-1.6335 -14.995304,-1.25987 v 9.6874 c 2.889071,0.15103 12.313544,-1.09919 16.39778,0.53223 2.873471,1.14778 4.976624,4.89269 6.283853,10.53609 0.645709,2.78758 4.535713,9.21317 4.535713,9.21317 z"
       id="path873"
       inkscape:connector-curvature="0"
       sodipodi:nodetypes="ccsccsccssc"
       inkscape:path-effect="#path-effect876"
       inkscape:original-d="m 42.191589,208.6481 c -0.425222,3.85569 -1.74814,4.20498 -1.74814,4.20498 -0.641147,-0.24804 -1.038496,-1.53078 -1.228844,-3.40661 -0.190347,-1.87583 -0.173692,-4.34475 0.01317,-6.96516 0.625388,-5.08273 1.009827,-6.14295 2.869318,-11.02918 2.483528,-4.9367 5.092222,-9.01381 12.316538,-11.51305 4.75633,-1.64544 13.75558,-1.6335 14.995304,-1.25987 v 9.6874 c -2.889071,0.15103 -12.313544,-1.09919 -16.39778,0.53223 -2.873471,1.14778 -4.976624,4.89269 -6.283853,10.53609 -0.645709,2.78758 -4.535713,9.21317 -4.535713,9.21317 z" />
    <path
       style="fill:#e69c0f;fill-opacity:1;fill-rule:nonzero;stroke:none;stroke-width:2.64583325;stroke-linecap:butt;stroke-linejoin:miter;stroke-miterlimit:4;stroke-dasharray:none;stroke-opacity:1;paint-order:stroke fill markers"
       d="m 47.768693,209.898 c 0,0 0.85215,-4.90196 7.167566,-5.09728 5.052775,-0.15627 10.599236,4.20602 10.599236,4.20602 0,0 -5.466337,-1.30192 -11.99897,-1.42372 -3.798375,-0.0708 -5.767832,2.31498 -5.767832,2.31498 z m 43.27621,0 c 0,0 -0.85215,-4.90196 -7.167566,-5.09728 -5.052775,-0.15627 -10.599236,4.20602 -10.599236,4.20602 0,0 5.466337,-1.30192 11.99897,-1.42372 3.798375,-0.0708 5.767832,2.31498 5.767832,2.31498 z"
       id="rect880"
       inkscape:connector-curvature="0"
       sodipodi:nodetypes="cscsc"
       inkscape:path-effect="#path-effect883"
       inkscape:original-d="m 47.768693,209.898 c 0,0 0.85215,-4.90196 7.167566,-5.09728 5.052775,-0.15627 10.599236,4.20602 10.599236,4.20602 0,0 -5.466337,-1.30192 -11.99897,-1.42372 -3.798375,-0.0708 -5.767832,2.31498 -5.767832,2.31498 z" />
    <path
       style="fill:none;fill-opacity:1;stroke:#4c804f;stroke-width:1.32291663;stroke-linecap:butt;stroke-linejoin:miter;stroke-miterlimit:4;stroke-dasharray:none;stroke-opacity:1"
       d="m 74.771569,268.09648 -5.6e-5,7.90224 -4.668046,7.93749 v 13.22917"
       id="path916"
       inkscape:connector-curvature="0" />
    <path
       style="fill:#4c804f;fill-opacity:1;fill-rule:nonzero;stroke:none;stroke-width:1.32291663;stroke-linecap:butt;stroke-linejoin:miter;stroke-miterlimit:4;stroke-dasharray:none;stroke-opacity:1;paint-order:stroke fill markers"
       d="m 64.740835,267.93112 5.5e-5,7.90224 -6.618316,6.19018 z m 9.336202,0 -5.5e-5,7.90224 6.618316,6.19018 z"
       id="rect918"
       inkscape:connector-curvature="0"
       sodipodi:nodetypes="cccc"
       inkscape:path-effect="#path-effect921"
       inkscape:original-d="m 64.740835,267.93112 5.5e-5,7.90224 -6.618316,6.19018 z" />
    <path
       style="fill:#48b14e;fill-opacity:1;fill-rule:nonzero;stroke:none;stroke-width:2.64583325;stroke-linecap:butt;stroke-linejoin:miter;stroke-miterlimit:4;stroke-dasharray:none;stroke-opacity:1;paint-order:stroke fill markers"
       d="m 54.349255,252.37938 10.39158,15.55174 -6.618261,14.09242 -3.773319,-21.59935 z m 30.119362,0 -10.39158,15.55174 6.618261,14.09242 3.773319,-21.59935 z"
       id="rect909"
       inkscape:connector-curvature="0"
       sodipodi:nodetypes="ccccc"
       inkscape:path-effect="#path-effect914"
       inkscape:original-d="m 54.349255,252.37938 10.39158,15.55174 -6.618261,14.09242 -3.773319,-21.59935 z" />
    <path
       style="fill:none;stroke:#48b14e;stroke-width:0.26458332px;stroke-linecap:butt;stroke-linejoin:miter;stroke-opacity:1"
       d="m 64.74089,275.83336 4.668046,7.93749 v 13.22917"
       id="path923"
       inkscape:connector-curvature="0" />
    <path
       style="fill:#4c804f;fill-opacity:1;fill-rule:nonzero;stroke:none;stroke-width:1.32291663;stroke-linecap:butt;stroke-linejoin:miter;stroke-miterlimit:4;stroke-dasharray:none;stroke-opacity:1;paint-order:stroke fill markers"
       d="m 38.496629,283.52963 -0.04687,13.47039 h -2.708013 z m 61.831211,0 0.0469,13.47039 h 2.70801 z"
       id="rect925"
       inkscape:connector-curvature="0"
       sodipodi:nodetypes="cccc"
       inkscape:path-effect="#path-effect928"
       inkscape:original-d="m 38.496629,283.52963 -0.04687,13.47039 h -2.708013 z" />
    <path
       style="fill:#7affe5;fill-opacity:0.13468012;fill-rule:nonzero;stroke:none;stroke-width:2.64583325;stroke-linecap:butt;stroke-linejoin:miter;stroke-miterlimit:4;stroke-dasharray:none;stroke-opacity:1;paint-order:stroke fill markers"
       d="m 64.955204,217.64156 c 2e-6,3.77186 -3.910624,8.45013 -8.367447,8.45013 -6.573491,0 -8.069794,-4.24832 -8.598958,-7.98711 -0.528577,-3.73464 3.216097,-6.49882 7.672916,-6.49882 4.456819,0 9.293484,2.26394 9.293489,6.0358 z m 8.907464,0 c -2e-6,3.77186 3.910624,8.45013 8.367447,8.45013 6.573491,0 8.069794,-4.24832 8.598958,-7.98711 0.528577,-3.73464 -3.216097,-6.49882 -7.672916,-6.49882 -4.456819,0 -9.293484,2.26394 -9.293489,6.0358 z"
       id="path852"
       inkscape:connector-curvature="0"
       sodipodi:nodetypes="sssss"
       inkscape:path-effect="#path-effect855"
       inkscape:original-d="m 64.955204,217.64156 c 2e-6,3.77186 -3.910624,8.45013 -8.367447,8.45013 -6.573491,0 -8.069794,-4.24832 -8.598958,-7.98711 -0.528577,-3.73464 3.216097,-6.49882 7.672916,-6.49882 4.456819,0 9.293484,2.26394 9.293489,6.0358 z" />
    <path
       style="fill:#4c804f;fill-opacity:1;fill-rule:nonzero;stroke:none;stroke-width:0.890531;stroke-linecap:butt;stroke-linejoin:miter;stroke-miterlimit:4;stroke-dasharray:none;stroke-opacity:1;paint-order:stroke fill markers"
       d="m 56.186211,210.95289 c -2.374537,0 -3.631308,0.2018 -6.196137,0.63342 -0.976486,0.16433 -1.739178,0.30366 -2.771684,0.42296 -3.537305,-0.0443 -6.160508,0.53478 -6.753017,0.53112 v 0.5256 c 1.669728,0.49292 5.062332,-0.009 6.76908,1.53345 0.18889,1.48102 0.154352,2.77128 0.154352,3.36491 0,4.74907 3.849885,8.59896 8.598959,8.59896 4.749074,0 9.5344,-3.75635 9.5344,-8.50542 0,-0.14841 0.975844,0.0929 0.692081,-0.18627 -0.614906,-0.60491 -0.244786,-1.04594 -0.01155,-1.21843 0.479961,-0.35497 2.100043,-0.43357 3.206229,-0.48127 v -1.7672 c -1.719792,0.0358 -2.900361,0.2629 -4.082069,0.68382 -0.504225,-0.8887 -1.821593,-1.77274 -2.691771,-2.36405 -1.740357,-1.18262 -4.074348,-1.7716 -6.448885,-1.7716 h 10e-7 z m 0,1.14653 c 4.115863,0 8.189435,1.84261 8.189435,5.95847 -6e-6,4.11586 -4.272013,7.35888 -8.387872,7.35888 -4.115859,0 -7.452424,-3.33656 -7.45243,-7.45242 0,-4.11586 3.535004,-5.86493 7.650867,-5.86493 z m 26.44545,-1.14653 c 2.374537,0 3.631308,0.2018 6.196137,0.63342 0.976486,0.16433 1.739178,0.30366 2.771684,0.42296 3.537305,-0.0443 6.160508,0.53478 6.753017,0.53112 v 0.5256 c -1.669728,0.49292 -5.062332,-0.009 -6.76908,1.53345 -0.18889,1.48102 -0.154352,2.77128 -0.154352,3.36491 0,4.74907 -3.849885,8.59896 -8.598959,8.59896 -4.749074,0 -9.5344,-3.75635 -9.5344,-8.50542 0,-0.14841 -0.975844,0.0929 -0.692081,-0.18627 0.614906,-0.60491 0.244786,-1.04594 0.01155,-1.21843 -0.479961,-0.35497 -2.100043,-0.43357 -3.206229,-0.48127 v -1.7672 c 1.719792,0.0358 2.900361,0.2629 4.082069,0.68382 0.504225,-0.8887 1.821593,-1.77274 2.691771,-2.36405 1.740357,-1.18262 4.074348,-1.7716 6.448885,-1.7716 h -1e-6 z m 0,1.14653 c -4.115863,0 -8.189435,1.84261 -8.189435,5.95847 6e-6,4.11586 4.272013,7.35888 8.387872,7.35888 4.115859,0 7.452424,-3.33656 7.45243,-7.45242 0,-4.11586 -3.535004,-5.86493 -7.650867,-5.86493 z"
       id="path930"
       inkscape:connector-curvature="0"
       inkscape:path-effect="#path-effect944"
       inkscape:original-d="m 56.186211,210.95289 c -2.374537,0 -3.631308,0.2018 -6.196137,0.63342 -0.976486,0.16433 -1.739178,0.30366 -2.771684,0.42296 -3.537305,-0.0443 -6.160508,0.53478 -6.753017,0.53112 v 0.5256 c 1.669728,0.49292 5.062332,-0.009 6.76908,1.53345 0.18889,1.48102 0.154352,2.77128 0.154352,3.36491 0,4.74907 3.849885,8.59896 8.598959,8.59896 4.749074,0 9.5344,-3.75635 9.5344,-8.50542 0,-0.14841 0.975844,0.0929 0.692081,-0.18627 -0.614906,-0.60491 -0.244786,-1.04594 -0.01155,-1.21843 0.479961,-0.35497 2.100043,-0.43357 3.206229,-0.48127 v -1.7672 c -1.719792,0.0358 -2.900361,0.2629 -4.082069,0.68382 -0.504225,-0.8887 -1.821593,-1.77274 -2.691771,-2.36405 -1.740357,-1.18262 -4.074348,-1.7716 -6.448885,-1.7716 h 10e-7 z m 0,1.14653 c 4.115863,0 8.189435,1.84261 8.189435,5.95847 -6e-6,4.11586 -4.272013,7.35888 -8.387872,7.35888 -4.115859,0 -7.452424,-3.33656 -7.45243,-7.45242 0,-4.11586 3.535004,-5.86493 7.650867,-5.86493 z"
       sodipodi:nodetypes="ssccccssssscccsscssscss" />
    <path
       style="fill:#f2b239;fill-opacity:1;fill-rule:nonzero;stroke:none;stroke-width:2.64583325;stroke-linecap:butt;stroke-linejoin:miter;stroke-miterlimit:4;stroke-dasharray:none;stroke-opacity:1;paint-order:stroke fill markers"
       d="m 86.617965,181.67475 c -8.754997,-1.62057 -20.902086,-0.64094 -29.203384,-1.85208 3.128206,-0.30938 10.604865,-6.13522 13.856674,-6.46243 0.743792,-0.0748 -0.644778,2.88886 0.175617,2.91637 1.050646,0.0352 2.939997,-3.10794 4.150903,-2.7663 1.196387,0.33755 -1.626253,3.00428 -0.501564,3.29281 0.66009,0.16933 3.107594,-2.62622 3.972815,-2.1293 0.487311,0.27987 -1.503745,2.60256 -0.918822,2.84133 1.018614,0.41581 3.629583,-2.06492 4.389113,-1.70285 0.700319,0.33386 -0.486792,2.31127 -0.486791,2.73138 0.362804,1.32674 4.009393,2.70867 4.565439,3.13107 z"
       id="path857"
       inkscape:connector-curvature="0"
       sodipodi:nodetypes="ccssssssscc" />
  </g>
</svg>
